<svg id="Hexels SVG Export" xmlns="http://www.w3.org/2000/svg" version="1.1" xmlns:xlink="http://www.w3.org/1999/xlink" viewBox="0 -0 83 96" xml:space="preserve">
<g id="Root" transform="matrix(1.000, 0.000, 0.000, 1.000, 0.000, -0.000)">
<g id="Layer 1" transform="matrix(1.000, 0.000, 0.000, 1.000, 0.000, -0.000)">
<path d="M 41.57,11.98 L 20.77,23.98 L 27.72,28.02 L 41.57,20.02 L 55.42,28.02 L 62.37,23.98 L 41.57,11.98  z
" style="fill:#a47fe5;fill-opacity:1.00"/>
<path d="M 41.57,19.98 L 27.69,27.99 L 27.69,44.01 L 34.66,40.01 L 34.66,32.01 L 41.59,28.01 L 41.57,19.98  z
" style="fill:#9c48c5;fill-opacity:1.00"/>
<path d="M 41.57,19.98 L 41.55,28.01 L 48.48,32.01 L 48.48,40.01 L 55.45,44.01 L 55.45,27.99 L 41.57,19.98  z
" style="fill:#9b1ca5;fill-opacity:1.00"/>
<path d="M 20.76,23.99 L 20.76,48.01 L 41.56,60.02 L 41.59,51.98 L 27.73,43.99 L 27.74,27.99 L 20.76,23.99  z
" style="fill:#9b1ca5;fill-opacity:1.00"/>
<path d="M 62.38,23.99 L 55.40,27.99 L 55.40,43.99 L 41.55,51.98 L 41.57,60.02 L 62.38,48.01 L 62.38,23.99  z
" style="fill:#9c48c5;fill-opacity:1.00"/>
<path d="M 41.57,27.98 L 34.62,32.00 L 41.57,36.03 L 48.52,32.00 L 41.57,27.98  z
" style="fill:#cbd655;fill-opacity:1.00"/>
<path d="M 34.63,31.98 L 34.62,40.01 L 41.58,44.02 L 41.59,35.99 L 34.63,31.98  z
" style="fill:#d59d30;fill-opacity:1.00"/>
<path d="M 48.51,31.98 L 41.55,35.99 L 41.56,44.02 L 48.52,40.01 L 48.51,31.98  z
" style="fill:#ffca3a;fill-opacity:1.00"/>
<path d="M 34.64,39.97 L 27.69,44.01 L 41.57,52.03 L 55.45,44.01 L 48.50,39.97 L 41.57,43.97 L 34.64,39.97  z
" style="fill:#a47fe5;fill-opacity:1.00"/>
<path d="M 20.79,47.98 L 13.84,52.02 L 41.57,68.03 L 69.30,52.02 L 62.35,47.98 L 41.57,59.97 L 20.79,47.98  z
" style="fill:#79f0c3;fill-opacity:1.00"/>
<path d="M 13.86,51.98 L 13.84,60.02 L 34.62,72.02 L 34.62,80.01 L 41.59,84.01 L 41.59,67.98 L 13.86,51.98  z
" style="fill:#268535;fill-opacity:1.00"/>
<path d="M 69.27,51.98 L 41.55,67.98 L 41.55,84.01 L 48.52,80.01 L 48.51,72.02 L 69.30,60.02 L 69.27,51.98  z
" style="fill:#50a960;fill-opacity:1.00"/>
</g>
</g></svg>
